<?xml version="1.0" encoding="utf-8"?>
<!-- Generator: Adobe Illustrator 15.0.2, SVG Export Plug-In . SVG Version: 6.00 Build 0)  -->
<!DOCTYPE svg PUBLIC "-//W3C//DTD SVG 1.1//EN" "http://www.w3.org/Graphics/SVG/1.1/DTD/svg11.dtd">
<svg version="1.1" id="Layer_1" xmlns="http://www.w3.org/2000/svg" xmlns:xlink="http://www.w3.org/1999/xlink" x="0px" y="0px"
	 width="18.082px" height="20.302px" viewBox="0 0 18.082 20.302" enable-background="new 0 0 18.082 20.302" xml:space="preserve">
<g>
	<g>
		<path fill="#7A0E0E" d="M8.842,1.716c0.08,0.004,0.171,0,0.27,0l0.215-0.355l0.047-0.069L8.991,0.253L8.628,1.226l0.021,0.051
			L8.842,1.716z"/>
		<path fill="#7A0E0E" d="M4.705,18.595c0,0.619,0.485,1.123,1.087,1.123h2.464c0.335-0.008,0.603,0.256,0.65,0.584
			c0.046-0.328,0.317-0.584,0.646-0.584h2.505c0.6,0,1.09-0.504,1.09-1.123V8.958h-2.415c0.047,0.124,0.047,0.218,0.047,0.218
			s-0.394-0.09-0.746-0.074C9.366,9.13,9.101,9.541,8.779,9.646C8.453,9.75,7.991,9.792,7.667,9.427
			c-0.134-0.158-0.134-0.326-0.083-0.47H7.105H6.904H4.705v3.833v1.881V18.595z M5.418,9.82h7.009v8.605h-0.019
			c0,0.342-0.27,0.621-0.605,0.621c-0.032,0-0.056-0.004-0.082-0.008H9.445v0.014c-0.371-0.006-0.527,0.16-0.546,0.361
			c-0.022-0.201-0.183-0.361-0.546-0.361v-0.014H6.109c-0.026,0.004-0.057,0.008-0.083,0.008c-0.335,0-0.607-0.279-0.607-0.621V9.82
			z"/>
		<path fill="#7A0E0E" d="M12.028,5.966c-0.288,0.582-0.014,1.076,0.325,1.307c0.337,0.232,0.503,0.217,0.661,0.051
			c0.165-0.166-0.177-0.345-0.177-0.345s0.177,0,0.223-0.101c0.054-0.102-0.015-0.303-0.099-0.365
			c-0.074-0.063-0.155-0.27-0.144-0.348c0.01-0.059,0.076-0.244,0.307-0.379c-0.026,0.172,0.041,0.333,0.16,0.476
			c0.04,0.05,0.167-0.034,0.173-0.086c0.023-0.151,0.17-0.106,0.282-0.081c0.052,0.012,0.104,0.033,0.158,0.053
			c-0.033,0.02-0.071,0.041-0.106,0.074c-0.258,0.217-0.232,0.595-0.066,0.858c0.043,0.065,0.177-0.03,0.171-0.095
			c-0.031-0.184,0.174-0.162,0.294-0.131c0.191,0.055,0.265,0.23,0.227,0.418c-0.043,0.018-0.092,0.09-0.092,0.123
			c-0.006,0.346-0.168,0.611-0.397,0.826c-0.016-0.082-0.044-0.145-0.107-0.23c-0.178-0.238-0.344-0.449-0.474-0.725
			c-0.021-0.064-0.112,0-0.133,0.035c-0.357,0.576,0.091,1.055,0.036,1.408h0.151c0.057-0.237-0.296-0.736-0.143-1.2
			c0.051,0.112,0.104,0.229,0.172,0.329c0.128,0.172,0.339,0.326,0.347,0.566c0,0.063,0.067,0.049,0.099,0.02
			c0.277-0.23,0.498-0.51,0.576-0.852c0.162,0.209,0.292,0.424,0.215,0.727c-0.03,0.114,0.12,0.041,0.152-0.019
			c0.104-0.261,0.34-0.71,0.748-0.516c-0.132,0.149-0.165,0.362-0.207,0.589c-0.012,0.04,0.022,0.07,0.062,0.056
			c0.309-0.103,0.548-0.026,0.79,0.161c-0.072,0.055-0.149,0.113-0.221,0.184c-0.049,0.049-0.084,0.111-0.115,0.174
			c-0.309,0.113-0.512,0.283-0.793,0.361c-0.405,0.117-0.656,0.104-0.656,0.104l0.092,0.184c0,0-0.355-0.055-1.042-0.434v0.645
			c0.107,0.055,0.2,0.082,0.2,0.082s1.902,0.716,2.668,1.658c0.088,0.162,0.183,0.334,0.203,0.516
			c-0.149-0.113-0.28-0.137-0.379-0.055c-0.063-0.338-0.271-0.615-0.566-0.857c-0.044-0.039-0.2,0.016-0.166,0.088
			c0.098,0.217,0.128,0.426,0.122,0.656c-0.006,0.098-0.026,0.186-0.063,0.279c-0.069,0.199-0.05-0.02-0.061-0.078
			c-0.12-0.4-0.376-0.689-0.697-0.936c-0.058-0.049-0.222,0.053-0.154,0.1c0.097,0.072,0.172,0.166,0.221,0.273
			c0.21,0.416-0.138,0.355-0.35,0.633c0.077-0.1,0.01-0.254-0.038-0.348c-0.168-0.393-0.59-0.572-0.94-0.74v0.189
			c0.383,0.217,1.04,0.59,0.754,0.969c-0.028,0.033-0.009,0.07,0.035,0.072c0.461,0.061,0.77-0.242,0.77-0.592
			c0.148,0.209,0.242,0.445,0.217,0.725c-0.006,0.051,0.063,0.051,0.092,0.041c0.381-0.109,0.444-0.566,0.376-0.951
			c0.2,0.242,0.313,0.525,0.271,0.885c-0.013,0.084,0.174,0.025,0.178-0.047c0.055-0.307,0.247-0.215,0.384-0.047
			c0.039,0.051,0.161-0.01,0.168-0.059c0.012-0.061,0.014-0.119,0.012-0.174c0.427,0.656,0.528,1.061,0.528,1.061
			s-0.306,0.609-1.036,1.15c0.137-0.438,0-0.977-0.198-1.361c-0.017-0.041-0.089-0.006-0.107,0.004
			c-0.239,0.148-0.461,0.381-0.609,0.645c-0.037-0.205-0.091-0.404-0.144-0.611c-0.014-0.025-0.047-0.037-0.076-0.025
			c-0.287,0.09-0.459,0.297-0.573,0.553c-0.09,0.043-0.251,0.135-0.354,0.264c0,0,0.094-0.197,0.191-0.299
			c0.101-0.096,0.195-0.232,0.178-0.449c-0.014-0.211-0.158-0.646-0.158-0.646s-0.727,0.797-0.809,1.473
			c-0.084,0.682,0.342,1.279,1.134,1.424c0.789,0.154,1.706-0.131,2.24-0.607c0.536-0.48,0.645-0.947,0.645-0.947
			s0.163-0.545,0.021-1.189c-0.15-0.645-0.499-1.111-0.499-1.111s0.173-0.027,0.414,0.08c0,0-0.018-0.395-0.392-0.691
			c0,0,0.481,0.023,0.77,0.271c0,0-0.087-0.716-0.892-1.134c0,0,0.016-0.295,0.756-0.281c0,0-0.841-0.859-1.435-0.811
			c-0.076,0.006-0.153,0.018-0.21,0.037c0.075-0.102,0.149-0.193,0.247-0.256c0.029-0.021,0.085-0.099,0.047-0.137
			c-0.149-0.119-0.326-0.256-0.523-0.275c-0.097-0.006-0.202-0.025-0.293,0.006c-0.188,0.061,0.112-0.387,0.121-0.396
			c0.028-0.012,0.119-0.107,0.069-0.143c-0.198-0.123-0.374-0.131-0.529-0.072c0.126-0.225,0.18-0.585,0.18-0.585
			c0.165-1.313-0.999-1.755-1.548-1.819C13.341,5.119,12.322,5.388,12.028,5.966 M16.027,14.151
			c-0.053,0.627-0.791,0.762-1.241,0.535c-0.357-0.178-0.351-0.604-0.264-0.945c0.018-0.086,0.047-0.172,0.073-0.246
			c0.009-0.033,0.31-0.527,0.363-0.33c0.066,0.238,0.13,0.486,0.165,0.73c0.009,0.088,0.183,0,0.168-0.074l-0.002-0.01
			c0.084-0.277,0.3-0.549,0.533-0.727C15.974,13.421,16.05,13.794,16.027,14.151 M14.54,6.376c0.055,0.12,0.075,0.215,0.075,0.248
			c0,0.068-0.04,0.217-0.083,0.371c-0.093-0.321-0.575-0.379-0.781-0.188c-0.055-0.158-0.063-0.333,0.049-0.481
			c0.163-0.231,0.475-0.069,0.636,0.069C14.461,6.419,14.501,6.405,14.54,6.376 M14.428,6.166c-0.113-0.063-0.227-0.096-0.343-0.085
			c-0.209-0.106-0.584-0.194-0.766-0.019c-0.062-0.107-0.104-0.229-0.079-0.354c0.093-0.037,0.207-0.062,0.349-0.074
			C13.975,5.605,14.261,5.886,14.428,6.166"/>
		<path fill="#7A0E0E" d="M12.89,8.71c-0.219-0.1-0.328-0.154-0.443-0.221c-1.023-0.574-1.81-1.34-2.09-1.59
			c-0.085,0.186-0.255,0.424-0.367,0.629c0.007,0,0.007,0,0.007,0.006c0.151,0.162,0.661,0.785,1.502,1.176H12.89z"/>
		<path fill="#7A0E0E" d="M7.357,7.441c-0.396,0.197-0.869,0.414-1.07,0.482C5.755,8.083,4.73,8.32,4.73,8.32
			s0.077-0.35,0.222-0.383c0.082-0.021,0.126,0.017,0.162,0.006C5.115,7.97,5.19,7.97,5.238,7.939
			c0.516-0.338,0.884-0.98,0.736-1.625C5.788,5.492,5.21,5.07,4.415,5.097c-0.007,0-0.027,0.002-0.037,0.008
			c-0.018,0-0.037-0.006-0.047,0C3.939,5.14,3.508,5.568,3.571,5.902c0.062,0.326,0.416,0.574,0.56,0.412
			c0.146-0.166,0.132-0.35,0.132-0.35S4.744,6.12,4.778,6.3c0.029,0.176-0.129,0.15-0.163,0.066
			C4.583,6.284,4.583,6.181,4.583,6.181S4.276,6.284,4.311,6.596C4.34,6.91,4.712,7.008,4.887,6.878L4.276,7.621
			c0,0-0.194-0.729-0.526-0.779c0,0,0.024-0.341,0.174-0.245c0,0,0.031-0.13-0.174-0.165C3.537,6.396,3.362,6.466,3.278,6.576
			C3.202,6.693,3.202,6.831,3.202,6.831S2.813,6.513,2.475,6.466c-0.336-0.055-0.529,0.13-0.529,0.13s0.468,0.212,0.655,0.497
			C2.795,7.374,2.719,7.49,2.719,7.49s-0.58-0.598-1.193-0.463C0.914,7.158,0.95,7.808,0.95,7.808s0.269-0.203,0.357-0.164
			C1.383,7.669,1.4,7.789,1.4,7.789S1.269,7.832,1.195,7.998c0,0-0.172,0.328-0.128,0.646c0.017,0.113,0.041,0.197,0.069,0.264
			c0,0.01,0,0.02,0.003,0.021c0.011,0.028,0.024,0.045,0.04,0.065c0,0.005,0.009,0.007,0.009,0.013
			c0.016,0.021,0.03,0.045,0.047,0.063C1.259,9.092,1.275,9.114,1.3,9.136c0.007,0.012,0.014,0.02,0.024,0.027
			c0.02,0.012,0.035,0.029,0.049,0.046V9.208c0.053,0.039,0.112,0.082,0.169,0.123c0.008,0,0.008,0,0.008,0.002
			C1.6,9.365,1.719,9.269,1.708,9.212C1.61,8.929,1.715,8.634,2,8.566C1.929,8.65,1.888,8.755,1.874,8.884
			c-0.01,0.055,0.095-0.001,0.105-0.008c0.147-0.111,0.312,0.085,0.379,0.24c-0.395,0.162-0.793,0.35-1.071,0.518
			c-0.739,0.445-0.821,0.756-0.846,0.952c-0.02,0.17,0.126,0.417,0.307,0.545c-0.434,0.402-0.572,0.99-0.554,1.59
			c0,0.027,0.015,0.035,0.032,0.035c-0.007,0.018-0.011,0.033-0.016,0.041c-0.043,0.27,0.02,0.797,0.255,1.098
			c0.23,0.303,0.776,0.701,0.918,0.748c0.143,0.043,0.123,0.088,0.354,0.121c0.227,0.033,0.509,0.078,0.685,0.277
			c0.18,0.203,0.279,0.615,0.279,0.615s0.229-0.102,0.291-0.434C3.011,15.071,3.02,14.946,3,14.837
			c0.509,0.23,1.1,0.105,1.487-0.328v-0.207c-0.071,0.152-0.17,0.277-0.306,0.375C3.8,14.935,3.263,14.821,2.91,14.569
			c-0.006-0.002-0.022-0.002-0.041-0.002c-0.021-0.029-0.049-0.059-0.081-0.092c0.299,0.078,0.649,0.104,0.903-0.021
			c0.083-0.043,0.196-0.146,0.188-0.256c-0.007-0.123-0.067-0.207-0.141-0.303c-0.188-0.254-0.342-0.445-0.3-0.787
			c0.014-0.088-0.13,0.021-0.147,0.057c-0.279,0.584-0.759,0.297-0.797-0.092c-0.051-0.549,0.637-0.584,0.98-0.521
			c0.391,0.07,0.78,0.289,0.978,0.646c0.015,0.025,0.024,0.051,0.035,0.08v-0.354c-0.127-0.15-0.282-0.273-0.468-0.365
			c-0.578-0.297-1.508-0.256-1.681,0.508c-0.01,0.049-0.01,0.102-0.009,0.15c-0.035-0.047-0.077-0.094-0.12-0.135
			c-0.296-0.254-0.646-0.105-0.804-0.031c0,0,0.271,0.443,0.22,0.637c-0.057,0.195-0.272,0.098-0.452,0.01
			c-0.181-0.09-0.569-0.449-0.664-0.715c-0.096-0.26-0.096-0.463-0.096-0.463s-0.005,0-0.014,0c0.324-0.768,1.206-1.379,2.006-1.201
			c-0.011,0.088-0.026,0.17-0.037,0.252c-0.023,0.229,0.045,0.443,0.045,0.654c0,0.029,0.051,0.021,0.068,0.014
			c0.418-0.162,0.728-0.486,1-0.846c-0.041,0.258,0.012,0.494-0.06,0.791c-0.01,0.029,0.008,0.035,0.026,0.041
			c0.423,0.068,0.766-0.293,1.038-0.65v-0.193c-0.1,0.133-0.193,0.27-0.301,0.389c-0.087,0.1-0.668,0.588-0.565,0.182
			c0.103-0.404-0.208-0.352,0.104-0.896c0.063-0.121-0.09-0.066-0.126-0.008c-0.203,0.295-0.413,0.572-0.686,0.822
			c0.022-0.021-0.313,0.256-0.345,0.211c-0.087-0.129-0.056-0.342-0.051-0.473c0.057-0.992,0.895-1.511,1.692-1.896
			c0.058-0.026,0.13-0.189,0.021-0.131c-0.632,0.307-1.257,0.682-1.655,1.283c-0.058,0.086-0.094,0.191-0.13,0.295
			c-0.814-0.143-1.674,0.428-2.087,1.168c0.025-0.434,0.155-0.857,0.498-1.152c0.12-0.094,1.037-0.759,1.661-1.151
			C3.202,9.601,3.987,9.24,3.987,9.24l0.5-0.211V8.718h0.851c0,0,0.728-0.217,1.142-0.313C6.961,8.3,7.556,8.078,7.556,8.078h0.007
			C7.466,7.866,7.404,7.648,7.357,7.441 M4.863,5.304c1.021,0.373,1.373,1.867,0.307,2.58c0.01-0.025,0.023-0.053,0.041-0.096
			C5.304,7.523,5.648,6.677,5.418,6.08C5.298,5.75,5.088,5.476,4.863,5.304 M2.824,13.608c0.169-0.008,0.327-0.113,0.447-0.242
			c0,0.096,0.012,0.191,0.061,0.289c0.05,0.104,0.536,0.631,0.313,0.705c-0.211,0.072-0.493,0.041-0.739-0.02
			c0.088-0.094,0.173-0.232,0.139-0.365c-0.069-0.248-0.343-0.35-0.53-0.316c0,0-0.002-0.07-0.031-0.164
			C2.575,13.577,2.696,13.62,2.824,13.608 M2.532,9.052C2.461,8.823,2.252,8.679,2.044,8.75c0.013-0.089,0.04-0.179,0.12-0.222
			c0.017-0.009,0.13-0.123,0.048-0.118c-0.376,0.022-0.68,0.297-0.7,0.66C1.438,9.003,1.371,8.929,1.314,8.847
			c-0.001-0.14,0.011-0.313,0.069-0.492c0.143-0.471,0.925-0.566,1.399-0.401c0.48,0.163,0.795,0.479,0.844,0.681
			C3.626,8.634,3.113,8.812,2.532,9.052"/>
		<path fill="#7A0E0E" d="M7.799,8.433c0,0,0.005-0.008,0.013-0.008C7.784,8.411,7.76,8.395,7.739,8.378
			c-0.005,0.003-0.013,0.006-0.02,0.006C7.366,8.486,7.103,8.628,6.904,8.718h0.202C7.335,8.626,7.454,8.529,7.799,8.433"/>
		<path fill="#7A0E0E" d="M9.112,3.736C9.022,3.723,8.94,3.707,8.866,3.691v1.66h0.267V3.738C9.125,3.738,9.122,3.738,9.112,3.736"
			/>
		<path fill="#7A0E0E" d="M8.866,3.611V3.599C8.944,3.626,9.027,3.642,9.112,3.65c0.444,0.061,1.066,0.078,1.869-0.063
			c0.049,0.16,0.325,0.828,1.736,0.545c0.804-0.163,1.218-0.264,2.167-0.063c0,0-0.18-0.338-0.705-0.457
			c-0.296-0.07-0.542-0.225-0.916-0.559c0,0,0.038-0.245,0.735-0.393c0.3-0.062,0.886-0.141,0.886-0.141s-0.345-0.377-1.978-0.254
			c-0.097,0.004-0.337,0.061-0.624,0.104c-0.04-0.283-0.09-0.564-0.139-0.678c-0.084-0.197-0.656-0.139-1.063-0.085
			c-0.408,0.057-1.229,0.157-1.229,0.157s0-0.004-0.002-0.004C9.748,1.773,9.464,1.8,9.154,1.803L9.148,1.806
			c-0.082,0.004-0.188,0-0.271-0.003c-0.353-0.001-0.681-0.042-0.759-0.17c-0.112-0.188,0.278-0.25,0.441-0.272L8.552,1.337
			C8.387,1.361,8.147,1.405,8.073,1.535c0,0-0.57,0.945,0.188,1.883C8.261,3.417,8.458,3.531,8.866,3.611 M9.242,3.311H9.132V3.19
			H9.011L9.005,3.076h0.127V2.957h0.109V3.08h0.117v0.11L9.242,3.195V3.311z M10.165,3.195L10.036,3.19v0.121H9.929V3.19
			L9.808,3.195V3.08h0.121V2.957h0.106v0.119l0.129,0.004V3.195z M9.929,2.264v-0.12h0.106v0.12h0.129V2.38l-0.129-0.005V2.5H9.929
			V2.38H9.808V2.264H9.929z M9.013,2.264l0.119,0.003V2.144h0.109v0.12h0.117v0.111H9.242V2.5H9.132V2.38L9.005,2.375L9.013,2.264z
			 M9.045,2.496v0.157h0.477V2.169H9.359V2.035h0.459v0.135H9.665L9.66,2.653h0.468V2.496h0.133v0.467h-0.133v-0.16H9.665v0.482
			h0.153v0.141H9.359V3.285h0.163V2.8H9.045v0.162H8.914V2.496H9.045z"/>
		<path fill="#7A0E0E" d="M8.402,8.341L8.261,8.425c0,0,0.028,0.282,0.141,0.301c0.113,0.012,0.199-0.014,0.381-0.092
			c0.177-0.081,0.479-0.262,0.605-0.299C9.501,8.294,9.802,8.25,9.802,8.25s-0.08-0.238-0.036-0.441
			c0.036-0.215,0.086-0.195,0.286-0.596c0.191-0.396,0.367-0.846,0.112-1.201C9.907,5.652,9.242,5.353,8.738,5.509
			C8.231,5.664,8.152,6.025,8.152,6.025l0.737,0.523c0,0,0.221-0.294,0.47-0.234c0.247,0.055,0.48,0.392,0.393,0.672
			C9.665,7.267,9.417,7.355,9.195,7.341L8.383,8.117c0,0-0.024,0.039,0.05,0.061C8.508,8.199,8.681,8.3,9.304,7.978l0.069,0.139
			c0,0-0.505,0.268-0.73,0.256C8.417,8.367,8.402,8.341,8.402,8.341"/>
		<path fill="#7A0E0E" d="M8.82,6.693L7.908,6.049c0,0-0.226,0.257-0.246,0.62l1.147,0.147L8.82,6.693z"/>
		<path fill="#7A0E0E" d="M6.607,18.278h1.924c0.259,0,0.379,0.119,0.387,0.26c0.018-0.141,0.135-0.26,0.396-0.26h1.915
			c0.244,0,0.434-0.199,0.434-0.445h0.011v-7.364H6.178v7.364C6.178,18.079,6.367,18.278,6.607,18.278 M10.883,15.497
			c0.02,0.035,0.022,0.104,0.005,0.201c-0.021,0.102-0.005,0.172-0.005,0.172c-0.062-0.037-0.042-0.154-0.042-0.154
			c-0.069,0.25,0.014,0.277,0.014,0.277c-0.089,0.014-0.11-0.092-0.11-0.092c0,0.076,0.052,0.164,0.052,0.164
			c-0.082,0.031-0.133-0.027-0.133-0.027l0.009,0.025h-0.027c-0.016,0.084-0.005,0.289,0.013,0.373
			c0.025,0.092,0.114,0.17,0.15,0.188c0.047,0.02,0.059,0.041,0.098,0.107c0.048,0.059,0.235,0.115,0.315-0.02
			c0.075-0.129-0.07-0.359-0.146-0.475c-0.073-0.119-0.128-0.271-0.138-0.334c-0.01-0.064-0.034-0.205,0.055-0.33
			c0.089-0.121,0.27-0.063,0.336,0.012c0.052,0.072,0.062,0.189,0.062,0.189c0.052,0.043,0.072,0.121,0.067,0.17
			c-0.005,0.053,0.016,0.111,0.04,0.158c0.017,0.041,0.012,0.072,0.012,0.072l-0.036-0.031c-0.023-0.023-0.076-0.031-0.101-0.051
			c-0.032-0.023-0.075-0.08-0.088-0.127c-0.022-0.055-0.016-0.143-0.012-0.154c0-0.01,0.018-0.037,0.018-0.057
			c0-0.025,0-0.092-0.063-0.141c-0.067-0.059-0.26-0.033-0.192,0.289c0.073,0.322,0.256,0.369,0.299,0.611
			c0.049,0.252-0.099,0.361-0.24,0.371c-0.126,0.006-0.184-0.039-0.184-0.039c-0.003,0.029-0.017,0.039-0.021,0.078
			c0.004,0.045,0.039,0.141,0.104,0.199c0.063,0.057,0.143,0.076,0.159,0.086c0.013,0.004,0.018,0.012,0.013,0.031
			c-0.005,0.014-0.022,0.063-0.019,0.129c0.006,0.055,0.03,0.164,0.033,0.168s0.008,0.004,0.012,0.016
			c0.005,0.012-0.004,0.018-0.004,0.027c0,0.008,0.022,0.023,0.022,0.053c0,0.033-0.024,0.041-0.05,0.051
			c-0.024,0.002-0.032,0.008-0.046,0.021c-0.01,0.006-0.029,0.023-0.064,0.023c-0.038,0.008-0.043-0.004-0.065-0.012
			c-0.022,0-0.046,0.02-0.067,0.02c-0.017,0.008-0.039-0.008-0.061-0.008c-0.017,0-0.028,0.025-0.028,0.025
			c-0.03-0.008-0.03-0.043-0.03-0.043c-0.018-0.014-0.018-0.033-0.018-0.033c-0.023,0.006-0.013,0.039-0.013,0.039
			c-0.085-0.051-0.021-0.104-0.021-0.104c-0.017-0.025-0.013-0.039,0.027-0.072c0.036-0.029,0.069-0.025,0.1-0.004
			c0.027,0.006,0.074,0.004,0.074,0.004c0.001-0.029,0.015-0.168-0.009-0.209c-0.021-0.037-0.09-0.063-0.129-0.074
			c-0.029-0.014-0.163-0.033-0.263-0.111c-0.097-0.074-0.122-0.186-0.122-0.186c-0.066,0.008-0.199,0.047-0.215,0.047
			c-0.014,0.01-0.088,0.053-0.112,0.104c-0.031,0.051-0.008,0.133-0.008,0.17c0,0.035-0.044,0.064-0.062,0.1
			c-0.03,0.037-0.043,0.082-0.043,0.102s-0.01,0.033-0.014,0.055v0.051c0,0.014-0.009,0.025-0.009,0.025
			c-0.017-0.004-0.017-0.018-0.017-0.018c-0.022,0.021-0.044,0.021-0.127,0.021c-0.086,0.004-0.122-0.014-0.122-0.014
			s-0.036-0.002-0.062-0.008c-0.021-0.008-0.036-0.021-0.052-0.031c-0.018-0.002-0.03,0.018-0.03,0.018s-0.005,0.006-0.02-0.025
			c-0.014-0.041,0.02-0.055,0.02-0.055H9.529c-0.007,0-0.021,0.01-0.021,0.018v0.014c-0.024-0.031-0.012-0.07,0-0.084
			c0.015-0.014,0.014-0.018,0.03-0.039c0.014-0.021,0.044-0.033,0.06-0.029c0.015,0.004,0.062,0.029,0.087,0.043
			c0.028,0.012,0.042,0.025,0.081,0.023c0.042-0.012,0.042-0.045,0.042-0.07c0-0.029,0.01-0.133,0.016-0.162
			c0.003-0.035,0.016-0.064,0.01-0.078c-0.007-0.014-0.025-0.09-0.025-0.109c-0.006-0.031-0.038-0.203,0.13-0.289
			c0.164-0.088,0.398-0.064,0.398-0.064l0.005-0.004c-0.03-0.086-0.081-0.127-0.117-0.168c-0.039-0.039-0.12-0.092-0.182-0.174
			C9.97,16.251,9.914,16.14,9.914,16.14H9.645c-0.019,0-0.047,0.004-0.063,0.018c-0.018,0.006-0.03,0.018-0.037,0.031
			c-0.004,0.006-0.007,0-0.017-0.014c-0.01-0.012,0-0.018-0.006-0.027c-0.001-0.004-0.026,0-0.032,0.01
			c-0.014,0.006-0.026,0.006-0.051,0.018c-0.023,0.006-0.011-0.002-0.023-0.002c-0.014-0.01-0.01,0-0.043-0.029
			c-0.036-0.025-0.061-0.051-0.08-0.102c-0.016-0.049-0.005-0.076-0.005-0.076s-0.011-0.021-0.005-0.047
			c0.005-0.023,0.029-0.033,0.029-0.033s-0.008-0.014,0-0.033c0.007-0.02,0.036-0.02,0.036-0.02s-0.008,0-0.012-0.016
			c0-0.018,0.03-0.043,0.059-0.043c0.033-0.002,0.063,0.031,0.069,0.049c0.012,0.023,0.027,0.08,0.043,0.102
			c0.015,0.02,0.024,0.031,0.098,0.023c0.078-0.004,0.176-0.045,0.176-0.045c-0.012-0.057-0.06-0.205-0.08-0.248
			c-0.023-0.051-0.042-0.068-0.057-0.082c-0.019-0.018-0.032-0.018-0.032-0.018s-0.022,0-0.022-0.02c0-0.004,0.008-0.021,0.021-0.02
			c0.009-0.002,0.002-0.012,0.002-0.012s0,0.006-0.041-0.027c-0.043-0.025-0.063-0.096-0.063-0.119
			c-0.016-0.029-0.016-0.045,0-0.066c0.014-0.01,0.033-0.01,0.033-0.01s0.006-0.027,0.023-0.035c0.018-0.01,0.041-0.016,0.041-0.016
			s-0.008-0.01,0.024-0.027c0.034-0.02,0.057,0,0.057,0s0.015-0.02,0.015-0.029c0.006,0,0.03-0.006,0.064,0.016
			c0.03,0.023,0.058,0.061,0.058,0.061c0.021,0.084-0.016,0.107-0.027,0.131c-0.019,0.033-0.038,0.037-0.026,0.076
			c0.011,0.039,0.038,0.064,0.082,0.115c0.055,0.057,0.093,0.098,0.093,0.098c0.103-0.123,0.27-0.174,0.27-0.174
			s-0.029,0-0.045-0.008c-0.011-0.012-0.029,0-0.036,0.008h-0.045c-0.017,0-0.023-0.031-0.023-0.031v-0.047
			c-0.006-0.01-0.013-0.051-0.013-0.055c0-0.006,0.013-0.021,0.013-0.021l0.042,0.01c0,0,0.026,0.012,0.058,0.012
			c0.033,0.004,0.069-0.006,0.08-0.037c0.016-0.029-0.012-0.061-0.038-0.072c-0.035-0.018-0.073-0.004-0.073-0.004
			s-0.068,0.012-0.086-0.029c-0.021-0.037,0.005-0.109,0.005-0.109c-0.023-0.012,0-0.031,0-0.031l0.044-0.01
			c0,0,0.011-0.01,0.05-0.016c0.039-0.014,0.076-0.027,0.076-0.027c-0.012-0.014,0.022-0.025,0.063-0.037
			c0.045-0.006,0.126-0.025,0.126-0.025s0.013-0.084,0.088-0.063c0.072,0.018,0.072,0.125,0.072,0.125
			c0.014,0.033,0.057,0.064,0.093,0.078c0.032,0.006,0.059,0.063,0.064,0.088c0.011,0.027,0.044,0.053,0.063,0.068
			c0.012,0.01,0.067,0.039,0.067,0.102S10.872,15.468,10.883,15.497 M7.127,11.894c0-0.217,0.301-0.475,0.344-0.434
			c0.031-0.16,0.219-0.361,0.475-0.51c0.225-0.088,0.569-0.15,0.737-0.078c0.269,0,0.546-0.188,0.995,0.053
			c0,0.18,0.48,0,0.663,0.469c0.181,0.037,0.354,0.406,0.331,0.453c0.094,0.141,0.1,0.338,0.1,0.488c0.075,0,0.155,0.805-0.1,1.074
			c0,0.168-0.172,0.355-0.281,0.355c0,0.016-0.319,0.18-0.373,0.234c-0.185,0.104-0.428,0.229-0.653,0.229
			c0,0.012-0.087,0.02-0.198,0.023c-0.038,0.01-0.07,0.01-0.111,0.01h0.111v2.615c0.003,0.041,0.013,0.068,0.039,0.18
			c0.012,0.023,0.026,0.068,0.036,0.107c0.009,0.031,0.012,0.059,0.036,0.092c0.016,0.041,0.032,0.094,0.056,0.148
			c0.231,0.309,0.175,0.465,0.175,0.525c-0.144,0-0.261-0.191-0.412-0.037c0,0.031-0.174,0.309-0.194,0.309
			c-0.092,0.018-0.066-0.102-0.186-0.193c-0.011-0.334-0.383-0.205-0.442-0.205c0.076-0.104,0.159-0.213,0.225-0.469
			c0.106-0.152,0.185-0.426,0.185-0.426c0.011-0.822,0.022-1.816,0.033-2.658c-0.029-0.002-0.053-0.01-0.063-0.021
			c-0.055,0-0.716,0.008-0.716-0.076c-0.317-0.068-0.45-0.115-0.509-0.428c-0.099-0.088-0.385-0.348-0.251-0.572
			c-0.053-0.021-0.18-0.299-0.18-0.373C6.834,12.636,6.888,12.009,7.127,11.894 M6.367,16.103c0.025-0.047,0.037-0.105,0.037-0.158
			c-0.005-0.049,0.014-0.127,0.066-0.17c0,0,0.009-0.117,0.07-0.189c0.057-0.074,0.24-0.133,0.327-0.012
			c0.09,0.125,0.061,0.266,0.056,0.33c-0.013,0.063-0.065,0.215-0.134,0.334c-0.076,0.115-0.237,0.346-0.151,0.475
			c0.077,0.135,0.27,0.078,0.314,0.02c0.045-0.066,0.05-0.08,0.096-0.102c0.044-0.023,0.132-0.102,0.152-0.193
			c0.02-0.084,0.023-0.289,0.008-0.373H7.187l0.012-0.025c0,0-0.052,0.059-0.134,0.027c0,0,0.044-0.088,0.053-0.164
			c0,0-0.021,0.105-0.115,0.092c0,0,0.082-0.027,0.013-0.277c0,0,0.02,0.117-0.041,0.154c0,0,0.019-0.07-0.001-0.172
			c-0.021-0.098-0.016-0.166,0-0.201c0.009-0.029,0.029-0.07,0.029-0.133c0-0.061,0.052-0.092,0.069-0.102
			c0.013-0.016,0.046-0.041,0.056-0.068c0.012-0.025,0.037-0.082,0.073-0.088c0.031-0.014,0.066-0.045,0.083-0.078
			c0,0,0.001-0.107,0.073-0.125c0.079-0.021,0.085,0.063,0.085,0.063s0.091,0.016,0.132,0.025c0.039,0.012,0.076,0.023,0.064,0.037
			c0,0,0.037,0.014,0.075,0.027c0.036,0.006,0.047,0.016,0.047,0.016h0.052c0,0,0.019,0.021-0.009,0.041c0,0,0.03,0.07,0.01,0.109
			c-0.021,0.033-0.086,0.029-0.086,0.029s-0.038-0.014-0.069,0.004c-0.033,0.012-0.06,0.043-0.045,0.072
			c0.012,0.031,0.047,0.041,0.077,0.037c0.037-0.006,0.06-0.012,0.06-0.012l0.039-0.01c0,0,0.015,0.016,0.015,0.021
			c0,0.004-0.004,0.045-0.011,0.055c-0.004,0.008,0,0.041,0,0.041s-0.004,0.037-0.021,0.037H7.727
			C7.72,15.489,7.7,15.478,7.69,15.489c-0.008,0.008-0.045,0.008-0.045,0.008s0.168,0.051,0.27,0.174c0,0,0.044-0.041,0.089-0.098
			c0.05-0.051,0.077-0.076,0.088-0.115c0.012-0.039-0.011-0.049-0.025-0.076c-0.018-0.023-0.05-0.047-0.03-0.131
			c0,0,0.031-0.037,0.062-0.061c0.031-0.021,0.052-0.016,0.055-0.016c0.005,0.008,0.019,0.029,0.019,0.029s0.02-0.02,0.055,0
			c0.036,0.018,0.028,0.027,0.028,0.027s0.021,0.006,0.04,0.016c0.015,0.008,0.022,0.035,0.022,0.035s0.023,0,0.034,0.01
			c0.015,0.021,0.015,0.037,0.003,0.066c-0.007,0.023-0.026,0.094-0.067,0.119c-0.044,0.033-0.044,0.027-0.044,0.027
			s-0.004,0.01,0.012,0.012c0.008,0,0.014,0.012,0.014,0.02c-0.002,0.02-0.021,0.02-0.021,0.02s-0.015,0-0.03,0.018
			c-0.02,0.014-0.035,0.031-0.059,0.082c-0.021,0.043-0.076,0.191-0.084,0.248c0,0,0.106,0.041,0.181,0.045
			c0.067,0.008,0.08-0.004,0.097-0.023c0.015-0.021,0.033-0.078,0.039-0.102c0.007-0.018,0.039-0.051,0.073-0.051
			c0.024,0.002,0.056,0.027,0.056,0.045l-0.003,0.016c0,0,0.023,0,0.031,0.02s0,0.033,0,0.033s0.025,0.01,0.032,0.033
			c0.005,0.025-0.007,0.047-0.007,0.047s0.012,0.027-0.009,0.076c-0.017,0.051-0.045,0.076-0.076,0.102
			c-0.034,0.029-0.033,0.02-0.042,0.029c-0.017,0,0,0.008-0.028,0.002c-0.021-0.012-0.039-0.012-0.046-0.018
			c-0.012-0.01-0.037-0.014-0.037-0.01c0,0.01,0.006,0.016,0,0.027c-0.014,0.014-0.018,0.02-0.021,0.014
			c-0.004-0.014-0.019-0.025-0.038-0.031c-0.019-0.014-0.047-0.025-0.059-0.018h-0.27c0,0-0.061,0.111-0.127,0.189
			c-0.062,0.082-0.144,0.135-0.188,0.174c-0.038,0.039-0.085,0.082-0.114,0.168l0.007,0.004c0,0,0.235-0.023,0.397,0.064
			c0.167,0.086,0.137,0.258,0.132,0.289c0,0.02-0.023,0.096-0.03,0.109c0,0.014,0.005,0.043,0.013,0.078
			c0.008,0.029,0.013,0.133,0.018,0.162c0,0.025,0,0.059,0.038,0.07c0.037,0.002,0.056-0.012,0.079-0.023
			c0.031-0.014,0.071-0.039,0.091-0.043c0.016-0.004,0.042,0.008,0.059,0.029c0.02,0.021,0.014,0.025,0.026,0.039
			s0.028,0.053,0.004,0.084c0,0-0.004,0.008-0.004-0.014c0-0.008-0.007-0.018-0.015-0.018H8.308c0,0,0.031,0.014,0.019,0.055
			c-0.015,0.031-0.019,0.025-0.019,0.025s-0.011-0.02-0.031-0.018c-0.016,0.006-0.031,0.023-0.057,0.031
			c-0.019,0.006-0.058,0.008-0.058,0.008s-0.039,0.018-0.121,0.014c-0.083,0-0.104,0-0.127-0.021c0,0-0.007,0.014-0.017,0.018
			c0,0-0.007-0.012-0.007-0.025c0-0.006,0-0.031-0.006-0.051c-0.004-0.025-0.014-0.035-0.014-0.055s-0.011-0.064-0.03-0.102
			c-0.028-0.035-0.069-0.064-0.069-0.1c0-0.037,0.021-0.119-0.006-0.174c-0.024-0.047-0.104-0.09-0.116-0.1
			c-0.012,0-0.147-0.039-0.214-0.047c0,0-0.03,0.111-0.124,0.186c-0.097,0.078-0.237,0.098-0.269,0.111
			c-0.033,0.012-0.098,0.037-0.115,0.074c-0.024,0.045-0.018,0.18-0.013,0.209c0,0,0.042,0.002,0.076-0.004
			c0.028-0.021,0.063-0.025,0.101,0.004c0.032,0.033,0.035,0.047,0.025,0.072c0,0,0.063,0.053-0.025,0.104
			c0,0,0.011-0.039-0.008-0.039c0,0-0.004,0.02-0.02,0.033c0,0,0,0.035-0.035,0.043c0,0-0.009-0.025-0.027-0.025
			c-0.021,0-0.043,0.016-0.061,0.008c-0.019,0-0.042-0.02-0.063-0.02c-0.032,0-0.032,0.02-0.066,0.012
			c-0.04,0-0.056-0.018-0.065-0.023c-0.013-0.014-0.023-0.02-0.052-0.021c-0.021-0.01-0.045-0.018-0.045-0.051
			c0-0.031,0.016-0.045,0.016-0.053c0-0.01-0.004-0.016,0-0.027c0-0.012,0.008-0.012,0.017-0.016c0-0.004,0.027-0.113,0.03-0.168
			c0.002-0.066-0.011-0.115-0.021-0.129c-0.002-0.02,0-0.027,0.019-0.031c0.014-0.01,0.094-0.029,0.157-0.086
			c0.061-0.059,0.105-0.154,0.105-0.199c0-0.039-0.021-0.049-0.021-0.078c0,0-0.053,0.045-0.192,0.039
			c-0.133-0.01-0.286-0.119-0.234-0.371c0.044-0.242,0.222-0.289,0.292-0.611c0.076-0.322-0.115-0.348-0.18-0.289
			c-0.069,0.049-0.068,0.115-0.069,0.141c0,0.02,0.017,0.047,0.018,0.057c0,0.012,0.005,0.1-0.007,0.154
			c-0.027,0.047-0.062,0.104-0.092,0.127c-0.028,0.02-0.084,0.027-0.107,0.051c-0.021,0.02-0.028,0.031-0.028,0.031
			S6.344,16.144,6.367,16.103"/>
		<path fill="#7A0E0E" d="M7.7,9.144c0.02,0.164,0.191,0.373,0.577,0.406c0.399,0.031,0.637-0.233,1.021-0.434
			c0.386-0.197,0.936-0.17,1.097-0.147c0.16,0.03,0.248,0,0.248,0c-0.003-0.011-0.01-0.022-0.014-0.026
			c-0.059-0.037-0.465-0.277-0.901-0.154c-0.474,0.129-0.811,0.33-0.89,0.371C8.765,9.201,8.433,9.371,8.18,9.332
			C7.937,9.287,7.775,9.085,7.734,8.969C7.705,9.042,7.697,9.097,7.7,9.144"/>
		<path fill="#7A0E0E" d="M8.118,8.505C7.986,8.603,7.883,8.708,7.815,8.808C7.864,8.917,7.98,9.119,8.159,9.162
			c0.248,0.055,0.548-0.102,0.697-0.18C9.011,8.898,9.464,8.689,9.63,8.65s0.518-0.104,0.856,0.039
			c-0.144-0.169-0.315-0.254-0.494-0.283C9.732,8.367,9.456,8.49,9.313,8.553C9.165,8.611,8.83,8.857,8.489,8.898
			C8.152,8.939,8.118,8.505,8.118,8.505"/>
		<path fill="#7A0E0E" d="M8.708,7.12c0,0,0.087,0.052-0.031,0.138C8.554,7.341,7.638,7.855,7.638,7.855s0.128,0.338,0.268,0.486
			l1.227-1.17c0,0,0.233,0.05,0.369-0.077c0.145-0.115,0.133-0.383,0.025-0.498c-0.105-0.12-0.285-0.165-0.404-0.069
			c-0.12,0.098-0.163,0.252-0.127,0.352c0.031,0.099,0.061,0.113-0.027,0.113c-0.085,0-1.526-0.189-1.526-0.189l0.029,0.332
			L8.708,7.12z M9.261,6.783L9.25,6.625c0.076,0.012,0.396,0.16,0.164,0.361C9.18,7.181,9.123,6.794,9.123,6.794L9.261,6.783z"/>
		<path fill="#7A0E0E" d="M7.586,7.681l0.757-0.408L7.493,7.31C7.493,7.31,7.556,7.611,7.586,7.681"/>
		<polygon fill="#7A0E0E" points="11.953,10.384 12.083,10.25 12.207,10.384 12.299,10.283 12.169,10.152 12.299,10.024 
			12.207,9.921 12.083,10.056 11.953,9.921 11.861,10.024 11.984,10.152 11.861,10.283 		"/>
		<polygon fill="#7A0E0E" points="9.03,18.583 8.902,18.72 8.779,18.583 8.681,18.685 8.809,18.81 8.681,18.944 8.779,19.038 
			8.902,18.915 9.03,19.038 9.123,18.944 8.998,18.81 9.123,18.681 		"/>
		<polygon fill="#7A0E0E" points="11.953,14.556 12.083,14.429 12.207,14.556 12.299,14.462 12.169,14.329 12.299,14.198 
			12.207,14.103 12.083,14.228 11.953,14.103 11.861,14.198 11.984,14.329 11.861,14.462 		"/>
		<polygon fill="#7A0E0E" points="11.776,18.776 11.9,18.642 12.034,18.776 12.125,18.681 11.996,18.546 12.125,18.419 
			12.034,18.317 11.9,18.448 11.776,18.317 11.683,18.419 11.809,18.546 11.683,18.681 		"/>
		<polygon fill="#7A0E0E" points="5.701,10.384 5.825,10.25 5.955,10.384 6.046,10.283 5.92,10.152 6.051,10.024 5.955,9.921 
			5.825,10.056 5.701,9.921 5.605,10.024 5.735,10.152 5.605,10.283 		"/>
		<polygon fill="#7A0E0E" points="5.836,18.317 5.743,18.419 5.868,18.546 5.743,18.675 5.836,18.776 5.967,18.642 6.093,18.776 
			6.184,18.681 6.055,18.546 6.184,18.419 6.093,18.317 5.967,18.448 		"/>
		<polygon fill="#7A0E0E" points="5.701,14.556 5.825,14.429 5.955,14.556 6.046,14.462 5.92,14.329 6.046,14.198 5.955,14.103 
			5.825,14.228 5.701,14.103 5.605,14.198 5.735,14.329 5.605,14.462 		"/>
	</g>
</g>
</svg>
